<svg width="18" height="18" viewBox="0 0 18 18" fill="none" xmlns="http://www.w3.org/2000/svg">
<path d="M0.649414 7.5874C0.649414 11.4473 3.77881 14.5767 7.63867 14.5767C8.92529 14.5767 10.1123 14.2197 11.125 13.6055L14.4619 16.9424C14.7856 17.2661 15.2173 17.4238 15.6655 17.4238C16.6284 17.4238 17.3423 16.6934 17.3423 15.7471C17.3423 15.2988 17.1846 14.8838 16.8608 14.5518L13.5571 11.2397C14.2378 10.1938 14.6362 8.94043 14.6362 7.5874C14.6362 3.71924 11.5068 0.589844 7.63867 0.589844C3.77881 0.589844 0.649414 3.71924 0.649414 7.5874ZM3.01514 7.5874C3.01514 5.03076 5.09033 2.96387 7.63867 2.96387C10.1953 2.96387 12.2705 5.03076 12.2705 7.5874C12.2705 10.144 10.1953 12.2109 7.63867 12.2109C5.09033 12.2109 3.01514 10.144 3.01514 7.5874Z" fill="white" style="mix-blend-mode:overlay"/>
<path d="M0.649414 7.5874C0.649414 11.4473 3.77881 14.5767 7.63867 14.5767C8.92529 14.5767 10.1123 14.2197 11.125 13.6055L14.4619 16.9424C14.7856 17.2661 15.2173 17.4238 15.6655 17.4238C16.6284 17.4238 17.3423 16.6934 17.3423 15.7471C17.3423 15.2988 17.1846 14.8838 16.8608 14.5518L13.5571 11.2397C14.2378 10.1938 14.6362 8.94043 14.6362 7.5874C14.6362 3.71924 11.5068 0.589844 7.63867 0.589844C3.77881 0.589844 0.649414 3.71924 0.649414 7.5874ZM3.01514 7.5874C3.01514 5.03076 5.09033 2.96387 7.63867 2.96387C10.1953 2.96387 12.2705 5.03076 12.2705 7.5874C12.2705 10.144 10.1953 12.2109 7.63867 12.2109C5.09033 12.2109 3.01514 10.144 3.01514 7.5874Z" fill="white" fill-opacity="0.8" style="mix-blend-mode:overlay"/>
</svg>
