<svg t="1718691003470" class="icon" viewBox="0 0 1024 1024" version="1.1" xmlns="http://www.w3.org/2000/svg" p-id="2073" width="200" height="200"><path d="M36.977778 431.616a397.653333 397.653333 0 0 0 397.596444 397.653333 380.359111 380.359111 0 0 0 198.314667-55.296l189.838222 189.838223a95.573333 95.573333 0 0 0 68.494222 27.420444c54.727111 0 95.345778-41.528889 95.345778-95.402667 0-25.486222-8.931556-49.095111-27.363555-67.982222l-187.960889-188.416a379.448889 379.448889 0 0 0 61.44-207.815111A397.824 397.824 0 0 0 434.517333 33.564444C214.983111 33.564444 36.920889 211.626667 36.920889 431.616z m134.542222 0A263.111111 263.111111 0 0 1 434.631111 168.618667a263.224889 263.224889 0 0 1 263.452445 262.997333 263.224889 263.224889 0 0 1-263.452445 263.054222 263.111111 263.111111 0 0 1-263.054222-263.054222z" p-id="2074"></path><path d="M36.977778 431.616a397.653333 397.653333 0 0 0 397.596444 397.653333 380.359111 380.359111 0 0 0 198.314667-55.296l189.838222 189.838223a95.573333 95.573333 0 0 0 68.494222 27.420444c54.727111 0 95.345778-41.528889 95.345778-95.402667 0-25.486222-8.931556-49.095111-27.363555-67.982222l-187.960889-188.416a379.448889 379.448889 0 0 0 61.44-207.815111A397.824 397.824 0 0 0 434.517333 33.564444C214.983111 33.564444 36.920889 211.626667 36.920889 431.616z m134.542222 0A263.111111 263.111111 0 0 1 434.631111 168.618667a263.224889 263.224889 0 0 1 263.452445 262.997333 263.224889 263.224889 0 0 1-263.452445 263.054222 263.111111 263.111111 0 0 1-263.054222-263.054222z" p-id="2075"></path></svg>