<svg t="1718691024111" class="icon" viewBox="0 0 1126 1024" version="1.1" xmlns="http://www.w3.org/2000/svg" p-id="2232" width="200" height="200"><path d="M24.32 494.4896c0 29.7472 21.6576 52.736 55.6544 52.736 15.7184 0 31.0272-7.68 43.776-18.7392L540.2624 179.2c14.848-12.7488 31.4368-12.7488 47.1552 0l415.6416 349.3376c12.8 11.0592 28.0576 18.7392 43.3664 18.7392 32.768 0 55.6544-20.4288 55.6544-51.8656 0-17.408-7.6288-33.1776-22.0672-45.056l-119.8592-101.1712V163.4304c0-19.968-13.1584-32.768-32.768-32.768h-78.1824c-19.968 0-33.1264 12.8-33.1264 32.768v64.6144L638.0032 78.848c-45.056-38.2464-103.7312-38.2464-148.736 0L46.3872 450.304c-14.4384 12.288-22.0672 28.4672-22.0672 44.1856z m146.176 386.7648c0 64.6144 42.9056 104.96 110.9504 104.96h563.5072c67.9936 0 110.9504-40.3456 110.9504-104.96v-301.312l-365.056-306.432c-17.408-14.4384-37.888-14.4384-54.8352 0L170.496 579.9424v301.312z m507.0336 8.0896H448.4608v-259.6864c0-20.4288 13.568-33.5872 33.9968-33.5872h161.8944c20.4288 0 33.1776 13.1584 33.1776 33.5872v259.6864z" p-id="2233"></path><path d="M24.32 494.4896c0 29.7472 21.6576 52.736 55.6544 52.736 15.7184 0 31.0272-7.68 43.776-18.7392L540.2624 179.2c14.848-12.7488 31.4368-12.7488 47.1552 0l415.6416 349.3376c12.8 11.0592 28.0576 18.7392 43.3664 18.7392 32.768 0 55.6544-20.4288 55.6544-51.8656 0-17.408-7.6288-33.1776-22.0672-45.056l-119.8592-101.1712V163.4304c0-19.968-13.1584-32.768-32.768-32.768h-78.1824c-19.968 0-33.1264 12.8-33.1264 32.768v64.6144L638.0032 78.848c-45.056-38.2464-103.7312-38.2464-148.736 0L46.3872 450.304c-14.4384 12.288-22.0672 28.4672-22.0672 44.1856z m146.176 386.7648c0 64.6144 42.9056 104.96 110.9504 104.96h563.5072c67.9936 0 110.9504-40.3456 110.9504-104.96v-301.312l-365.056-306.432c-17.408-14.4384-37.888-14.4384-54.8352 0L170.496 579.9424v301.312z m507.0336 8.0896H448.4608v-259.6864c0-20.4288 13.568-33.5872 33.9968-33.5872h161.8944c20.4288 0 33.1776 13.1584 33.1776 33.5872v259.6864z" p-id="2234"></path></svg>