<svg width="22" height="20" viewBox="0 0 22 20" fill="none" xmlns="http://www.w3.org/2000/svg">
<path d="M0.474609 9.6582C0.474609 10.2393 0.897949 10.6875 1.56201 10.6875C1.86914 10.6875 2.16797 10.5381 2.41699 10.3223L10.5518 3.49902C10.8423 3.25 11.166 3.25 11.4731 3.49902L19.5913 10.3223C19.8403 10.5381 20.1392 10.6875 20.438 10.6875C21.0771 10.6875 21.5254 10.2891 21.5254 9.6748C21.5254 9.33447 21.376 9.02734 21.0938 8.79492L18.7529 6.81934V3.19189C18.7529 2.80176 18.4956 2.55273 18.1138 2.55273H16.5864C16.1963 2.55273 15.939 2.80176 15.939 3.19189V4.45361L12.4609 1.54004C11.5811 0.792969 10.4355 0.792969 9.55566 1.54004L0.90625 8.79492C0.624023 9.03564 0.474609 9.35107 0.474609 9.6582ZM3.33008 17.2119C3.33008 18.4736 4.16846 19.2622 5.49658 19.2622H16.5034C17.8315 19.2622 18.6699 18.4736 18.6699 17.2119V11.3267L11.5396 5.3418C11.1992 5.05957 10.8008 5.05957 10.4688 5.3418L3.33008 11.3267V17.2119ZM13.2329 17.3696H8.75879V12.2979C8.75879 11.8994 9.02441 11.6421 9.42285 11.6421H12.5854C12.9839 11.6421 13.2329 11.8994 13.2329 12.2979V17.3696Z" fill="white" style="mix-blend-mode:overlay"/>
<path d="M0.474609 9.6582C0.474609 10.2393 0.897949 10.6875 1.56201 10.6875C1.86914 10.6875 2.16797 10.5381 2.41699 10.3223L10.5518 3.49902C10.8423 3.25 11.166 3.25 11.4731 3.49902L19.5913 10.3223C19.8403 10.5381 20.1392 10.6875 20.438 10.6875C21.0771 10.6875 21.5254 10.2891 21.5254 9.6748C21.5254 9.33447 21.376 9.02734 21.0938 8.79492L18.7529 6.81934V3.19189C18.7529 2.80176 18.4956 2.55273 18.1138 2.55273H16.5864C16.1963 2.55273 15.939 2.80176 15.939 3.19189V4.45361L12.4609 1.54004C11.5811 0.792969 10.4355 0.792969 9.55566 1.54004L0.90625 8.79492C0.624023 9.03564 0.474609 9.35107 0.474609 9.6582ZM3.33008 17.2119C3.33008 18.4736 4.16846 19.2622 5.49658 19.2622H16.5034C17.8315 19.2622 18.6699 18.4736 18.6699 17.2119V11.3267L11.5396 5.3418C11.1992 5.05957 10.8008 5.05957 10.4688 5.3418L3.33008 11.3267V17.2119ZM13.2329 17.3696H8.75879V12.2979C8.75879 11.8994 9.02441 11.6421 9.42285 11.6421H12.5854C12.9839 11.6421 13.2329 11.8994 13.2329 12.2979V17.3696Z" fill="white" fill-opacity="0.4" style="mix-blend-mode:overlay"/>
</svg>
