<svg t="1718691169081" class="icon" viewBox="0 0 1121 1024" version="1.1" xmlns="http://www.w3.org/2000/svg" p-id="2709" width="200" height="200"><path d="M424.423619 80.359619h516.096C937.20381 41.496381 912.969143 19.992381 871.66781 19.992381h-378.392381c-41.301333 0-65.584762 21.455238-68.85181 60.318476z m-80.944762 125.074286h677.985524c-5.266286-41.301333-27.940571-65.584762-75.288381-65.584762H418.377143c-47.396571 0-69.632 24.283429-74.898286 65.584762zM480.304762 955.440762h488.935619c89.429333 0 137.99619-48.566857 137.99619-137.216V409.404952c0-88.259048-48.566857-136.777143-137.99619-136.777142H395.312762c-89.478095 0-138.044952 48.566857-138.044952 136.777142v114.590477c150.186667 0 274.041905 124.245333 274.041904 274.041904 0 58.270476-19.017143 112.493714-51.004952 157.403429zM257.657905 1011.321905c115.760762 0 212.894476-96.743619 212.894476-213.333334C470.552381 681.447619 374.247619 585.142857 257.657905 585.142857c-116.97981 0-213.284571 96.353524-213.284572 212.894476 0 117.028571 96.304762 213.333333 213.284572 213.333334z m-72.021334-131.559619v-163.547429c0-20.626286 20.626286-29.93981 38.034286-19.407238l131.949714 80.164571c17.798095 10.922667 18.18819 32.377905 1.999239 42.081524L223.670857 899.169524c-17.408 10.532571-38.034286 1.219048-38.034286-19.407238z" p-id="2710"></path><path d="M424.423619 80.359619h516.096C937.20381 41.496381 912.969143 19.992381 871.66781 19.992381h-378.392381c-41.301333 0-65.584762 21.455238-68.85181 60.318476z m-80.944762 125.074286h677.985524c-5.266286-41.301333-27.940571-65.584762-75.288381-65.584762H418.377143c-47.396571 0-69.632 24.283429-74.898286 65.584762zM480.304762 955.440762h488.935619c89.429333 0 137.99619-48.566857 137.99619-137.216V409.404952c0-88.259048-48.566857-136.777143-137.99619-136.777142H395.312762c-89.478095 0-138.044952 48.566857-138.044952 136.777142v114.590477c150.186667 0 274.041905 124.245333 274.041904 274.041904 0 58.270476-19.017143 112.493714-51.004952 157.403429zM257.657905 1011.321905c115.760762 0 212.894476-96.743619 212.894476-213.333334C470.552381 681.447619 374.247619 585.142857 257.657905 585.142857c-116.97981 0-213.284571 96.353524-213.284572 212.894476 0 117.028571 96.304762 213.333333 213.284572 213.333334z m-72.021334-131.559619v-163.547429c0-20.626286 20.626286-29.93981 38.034286-19.407238l131.949714 80.164571c17.798095 10.922667 18.18819 32.377905 1.999239 42.081524L223.670857 899.169524c-17.408 10.532571-38.034286 1.219048-38.034286-19.407238z" p-id="2711"></path></svg>