<svg width="23" height="21" viewBox="0 0 23 21" fill="none" xmlns="http://www.w3.org/2000/svg">
<path d="M8.7041 1.64795H19.2876C19.2212 0.851074 18.7231 0.411133 17.8765 0.411133H10.1152C9.26855 0.411133 8.77051 0.851074 8.7041 1.64795ZM7.04395 4.21289H20.9478C20.8398 3.36621 20.375 2.86816 19.4038 2.86816H8.57959C7.6084 2.86816 7.15186 3.36621 7.04395 4.21289ZM9.84961 19.5942H19.877C21.7114 19.5942 22.7075 18.5981 22.7075 16.7803V8.39648C22.7075 6.58691 21.7114 5.59082 19.877 5.59082H8.10645C6.27197 5.59082 5.27588 6.58691 5.27588 8.39648V10.7456C8.35547 10.7456 10.8955 13.2939 10.8955 16.3652C10.8955 17.5605 10.5054 18.6729 9.84961 19.5942ZM5.28418 20.7397C7.6582 20.7397 9.65039 18.7559 9.65039 16.3652C9.65039 13.9746 7.6748 11.999 5.28418 11.999C2.88525 11.999 0.909668 13.9746 0.909668 16.3652C0.909668 18.7642 2.88525 20.7397 5.28418 20.7397ZM3.80664 18.042V14.6885C3.80664 14.2651 4.22998 14.0742 4.58691 14.29L7.29297 15.9336C7.6582 16.1577 7.6665 16.5977 7.33447 16.7969L4.58691 18.4404C4.22998 18.6562 3.80664 18.4653 3.80664 18.042Z" fill="white" style="mix-blend-mode:overlay"/>
<path d="M8.7041 1.64795H19.2876C19.2212 0.851074 18.7231 0.411133 17.8765 0.411133H10.1152C9.26855 0.411133 8.77051 0.851074 8.7041 1.64795ZM7.04395 4.21289H20.9478C20.8398 3.36621 20.375 2.86816 19.4038 2.86816H8.57959C7.6084 2.86816 7.15186 3.36621 7.04395 4.21289ZM9.84961 19.5942H19.877C21.7114 19.5942 22.7075 18.5981 22.7075 16.7803V8.39648C22.7075 6.58691 21.7114 5.59082 19.877 5.59082H8.10645C6.27197 5.59082 5.27588 6.58691 5.27588 8.39648V10.7456C8.35547 10.7456 10.8955 13.2939 10.8955 16.3652C10.8955 17.5605 10.5054 18.6729 9.84961 19.5942ZM5.28418 20.7397C7.6582 20.7397 9.65039 18.7559 9.65039 16.3652C9.65039 13.9746 7.6748 11.999 5.28418 11.999C2.88525 11.999 0.909668 13.9746 0.909668 16.3652C0.909668 18.7642 2.88525 20.7397 5.28418 20.7397ZM3.80664 18.042V14.6885C3.80664 14.2651 4.22998 14.0742 4.58691 14.29L7.29297 15.9336C7.6582 16.1577 7.6665 16.5977 7.33447 16.7969L4.58691 18.4404C4.22998 18.6562 3.80664 18.4653 3.80664 18.042Z" fill="white" fill-opacity="0.4" style="mix-blend-mode:overlay"/>
</svg>
