<svg t="1718691079304" class="icon" viewBox="0 0 1024 1024" version="1.1" xmlns="http://www.w3.org/2000/svg" p-id="2550" width="200" height="200"><path d="M150.096842 778.886737h723.806316c51.900632 0 85.045895-30.881684 85.045895-76.045474 0-51.469474-39.882105-92.591158-81.92-129.293474-34.438737-29.965474-41.121684-94.854737-50.122106-165.510736-12.018526-152.522105-64.404211-264.838737-175.319579-304.666948C630.568421 43.439158 578.236632 0 512 0 445.763368 0 393.000421 43.439158 372.412632 103.370105c-110.915368 39.828211-163.301053 152.090947-175.373474 304.666948-9.377684 70.656-15.629474 135.545263-50.122105 165.510736-42.469053 36.648421-81.812211 77.824-81.812211 129.293474 0 45.163789 33.091368 76.045474 84.992 76.045474zM512 971.722105c84.560842 0 146.270316-58.637474 151.659789-127.946105H360.340211c5.389474 69.308632 67.098947 127.946105 151.659789 127.946105z" p-id="2551"></path><path d="M150.096842 778.886737h723.806316c51.900632 0 85.045895-30.881684 85.045895-76.045474 0-51.469474-39.882105-92.591158-81.92-129.293474-34.438737-29.965474-41.121684-94.854737-50.122106-165.510736-12.018526-152.522105-64.404211-264.838737-175.319579-304.666948C630.568421 43.439158 578.236632 0 512 0 445.763368 0 393.000421 43.439158 372.412632 103.370105c-110.915368 39.828211-163.301053 152.090947-175.373474 304.666948-9.377684 70.656-15.629474 135.545263-50.122105 165.510736-42.469053 36.648421-81.812211 77.824-81.812211 129.293474 0 45.163789 33.091368 76.045474 84.992 76.045474zM512 971.722105c84.560842 0 146.270316-58.637474 151.659789-127.946105H360.340211c5.389474 69.308632 67.098947 127.946105 151.659789 127.946105z" p-id="2552"></path></svg>