<svg width="18" height="19" viewBox="0 0 18 19" fill="none" xmlns="http://www.w3.org/2000/svg">
<path d="M2.28467 14.4521H15.7153C16.6782 14.4521 17.2925 13.8794 17.2925 13.041C17.2925 12.0864 16.5537 11.3228 15.7734 10.6421C15.1343 10.0859 15.0098 8.88232 14.8438 7.5708C14.6196 4.74023 13.6484 2.65674 11.5898 1.91797C11.1997 0.805664 10.2285 0.000488281 9 0.000488281C7.77148 0.000488281 6.79199 0.805664 6.41016 1.91797C4.35156 2.65674 3.38037 4.74023 3.15625 7.5708C2.98193 8.88232 2.86572 10.0859 2.22656 10.6421C1.43799 11.3228 0.70752 12.0864 0.70752 13.041C0.70752 13.8794 1.32178 14.4521 2.28467 14.4521ZM9 18.0298C10.5688 18.0298 11.7144 16.9424 11.814 15.6558H6.18604C6.28564 16.9424 7.43115 18.0298 9 18.0298Z" fill="white" style="mix-blend-mode:overlay"/>
<path d="M2.28467 14.4521H15.7153C16.6782 14.4521 17.2925 13.8794 17.2925 13.041C17.2925 12.0864 16.5537 11.3228 15.7734 10.6421C15.1343 10.0859 15.0098 8.88232 14.8438 7.5708C14.6196 4.74023 13.6484 2.65674 11.5898 1.91797C11.1997 0.805664 10.2285 0.000488281 9 0.000488281C7.77148 0.000488281 6.79199 0.805664 6.41016 1.91797C4.35156 2.65674 3.38037 4.74023 3.15625 7.5708C2.98193 8.88232 2.86572 10.0859 2.22656 10.6421C1.43799 11.3228 0.70752 12.0864 0.70752 13.041C0.70752 13.8794 1.32178 14.4521 2.28467 14.4521ZM9 18.0298C10.5688 18.0298 11.7144 16.9424 11.814 15.6558H6.18604C6.28564 16.9424 7.43115 18.0298 9 18.0298Z" fill="white" fill-opacity="0.4" style="mix-blend-mode:overlay"/>
</svg>
