<?xml version="1.0" standalone="no"?><!DOCTYPE svg PUBLIC "-//W3C//DTD SVG 1.1//EN" "http://www.w3.org/Graphics/SVG/1.1/DTD/svg11.dtd"><svg t="1713883628960" class="icon" viewBox="0 0 1024 1024" version="1.1" xmlns="http://www.w3.org/2000/svg" p-id="11584" xmlns:xlink="http://www.w3.org/1999/xlink" width="200" height="200"><path d="M1001.23 425.54L831.49 125.65c-31.15-55.05-89.51-89.08-152.77-89.08H345.27c-63.26 0-121.62 34.03-152.77 89.08L22.77 425.54c-30.36 53.65-30.36 119.29 0 172.93L192.5 898.35c31.16 55.05 89.51 89.08 152.77 89.08h333.45c63.25 0 121.62-34.03 152.77-89.08l169.74-299.88c30.36-53.65 30.36-119.29 0-172.93z m-63.66 136.9L767.84 862.33c-18.13 32.04-52.28 51.96-89.11 51.96H345.27c-36.83 0-70.98-19.91-89.12-51.96L86.42 562.44c-17.61-31.11-17.61-69.77 0-100.88l169.73-299.88c18.14-32.05 52.29-51.96 89.12-51.96h333.45c36.83 0 70.98 19.91 89.12 51.96l169.73 299.88c17.61 31.11 17.61 69.77 0 100.88z" p-id="11585"></path><path d="M512 329.14c-100.82 0-182.86 82.04-182.86 182.86 0 100.86 82.04 182.86 182.86 182.86 100.86 0 182.86-82 182.86-182.86-0.01-100.82-82.01-182.86-182.86-182.86z m0 292.57c-60.5 0-109.71-49.21-109.71-109.71S451.5 402.29 512 402.29 621.71 451.5 621.71 512 572.5 621.71 512 621.71z" p-id="11586"></path></svg>