<?xml version="1.0" standalone="no"?><!DOCTYPE svg PUBLIC "-//W3C//DTD SVG 1.1//EN" "http://www.w3.org/Graphics/SVG/1.1/DTD/svg11.dtd"><svg t="1713974020309" class="icon" viewBox="0 0 1024 1024" version="1.1" xmlns="http://www.w3.org/2000/svg" p-id="1343" xmlns:xlink="http://www.w3.org/1999/xlink" width="200" height="200"><path d="M681.984 933.4784H342.016a277.76 277.76 0 0 1-277.4528-277.4528V367.9744A277.76 277.76 0 0 1 342.016 90.5216h339.968a277.76 277.76 0 0 1 277.4528 277.4528v288.0512a277.76 277.76 0 0 1-277.4528 277.4528zM342.016 162.2016a206.0288 206.0288 0 0 0-205.7728 205.7728v288.0512a206.0288 206.0288 0 0 0 205.7728 205.7728h339.968a206.0288 206.0288 0 0 0 205.7728-205.7728V367.9744a206.0288 206.0288 0 0 0-205.7728-205.7728z" fill="#606060" p-id="1344"></path><path d="M512 505.7024a144.2304 144.2304 0 0 1-57.4464-11.9296L215.7056 389.6832a35.84 35.84 0 0 1 28.672-65.7408L483.2256 428.032a72.0896 72.0896 0 0 0 57.5488 0l238.848-104.0896a35.84 35.84 0 0 1 28.6208 65.7408l-238.7968 104.0896A144.2304 144.2304 0 0 1 512 505.7024z" fill="#606060" p-id="1345"></path></svg>