<?xml version="1.0" standalone="no"?><!DOCTYPE svg PUBLIC "-//W3C//DTD SVG 1.1//EN" "http://www.w3.org/Graphics/SVG/1.1/DTD/svg11.dtd"><svg t="1713883460259" class="icon" viewBox="0 0 1024 1024" version="1.1" xmlns="http://www.w3.org/2000/svg" p-id="5388" xmlns:xlink="http://www.w3.org/1999/xlink" width="200" height="200"><path d="M161.95 429.49c-19.11 0-34.57-15.46-34.57-34.57v-48.74c0-120.05 97.68-217.74 217.74-217.74h66.57c19.11 0 34.57 15.46 34.57 34.57s-15.46 34.57-34.57 34.57h-66.52c-81.93 0-148.59 66.67-148.59 148.6v48.74c-0.04 19.11-15.53 34.57-34.63 34.57z m249.74 465.65h-66.52c-120.05 0-217.74-97.68-217.74-217.73v-55.07c0-19.11 15.46-34.57 34.57-34.57s34.57 15.46 34.57 34.57v55.07c0 81.93 66.67 148.59 148.59 148.59h66.52c19.11 0 34.57 15.46 34.57 34.57 0.01 19.11-15.5 34.57-34.56 34.57z m264.65 0h-57.78c-19.11 0-34.57-15.46-34.57-34.57S599.45 826 618.56 826h57.78c81.93 0 148.6-66.67 148.6-148.59v-55.07c0-19.11 15.46-34.57 34.57-34.57s34.57 15.46 34.57 34.57v55.07c-0.01 120.05-97.68 217.73-217.74 217.73zM859.5 429.49c-19.11 0-34.57-15.46-34.57-34.57v-48.74c0-81.93-66.67-148.6-148.6-148.6h-57.78c-19.11 0-34.57-15.46-34.57-34.57s15.46-34.57 34.57-34.57h57.78c120.06 0 217.73 97.68 217.73 217.74v48.74c0.01 19.12-15.44 34.57-34.56 34.57z m0 116.9H161.95c-19.11 0-34.57-15.46-34.57-34.57s15.46-34.57 34.57-34.57H859.5c19.11 0 34.57 15.46 34.57 34.57s-15.45 34.57-34.57 34.57z m0 0" p-id="5389"></path></svg>